<?xml version="1.0" encoding="UTF-8" standalone="no"?><svg xmlns="http://www.w3.org/2000/svg" xmlns:xlink="http://www.w3.org/1999/xlink" contentScriptType="application/ecmascript" contentStyleType="text/css" height="935px" preserveAspectRatio="none" style="width:1159px;height:935px;" version="1.1" viewBox="0 0 1159 935" width="1159px" zoomAndPan="magnify"><defs><filter height="300%" id="fhfvz9y73ic30" width="300%" x="-1" y="-1"><feGaussianBlur result="blurOut" stdDeviation="2.0"/><feColorMatrix in="blurOut" result="blurOut2" type="matrix" values="0 0 0 0 0 0 0 0 0 0 0 0 0 0 0 0 0 0 .4 0"/><feOffset dx="4.0" dy="4.0" in="blurOut2" result="blurOut3"/><feBlend in="SourceGraphic" in2="blurOut3" mode="normal"/></filter></defs><g><text fill="#000000" font-family="sans-serif" font-size="18" lengthAdjust="spacingAndGlyphs" textLength="417" x="355" y="16.708">Important Data Classes and Their Relationships</text><!--class Incident--><rect fill="#FEFECE" filter="url(#fhfvz9y73ic30)" height="176.0469" id="Incident" style="stroke: #A80036; stroke-width: 1.5;" width="212" x="782" y="28.9531"/><ellipse cx="858.75" cy="44.9531" fill="#ADD1B2" rx="11" ry="11" style="stroke: #A80036; stroke-width: 1.0;"/><path d="M861.7188,50.5938 Q861.1406,50.8906 860.5,51.0391 Q859.8594,51.1875 859.1563,51.1875 Q856.6563,51.1875 855.3359,49.5391 Q854.0156,47.8906 854.0156,44.7656 Q854.0156,41.6406 855.3359,39.9844 Q856.6563,38.3281 859.1563,38.3281 Q859.8594,38.3281 860.5078,38.4844 Q861.1563,38.6406 861.7188,38.9375 L861.7188,41.6563 Q861.0938,41.0781 860.5,40.8047 Q859.9063,40.5313 859.2813,40.5313 Q857.9375,40.5313 857.25,41.6016 Q856.5625,42.6719 856.5625,44.7656 Q856.5625,46.8594 857.25,47.9297 Q857.9375,49 859.2813,49 Q859.9063,49 860.5,48.7266 Q861.0938,48.4531 861.7188,47.875 L861.7188,50.5938 Z "/><text fill="#000000" font-family="sans-serif" font-size="12" lengthAdjust="spacingAndGlyphs" textLength="50" x="879.25" y="49.1074">Incident</text><line style="stroke: #A80036; stroke-width: 1.5;" x1="783" x2="993" y1="60.9531" y2="60.9531"/><text fill="#000000" font-family="sans-serif" font-size="11" lengthAdjust="spacingAndGlyphs" textLength="185" x="788" y="75.1636">An incident represents a distinct</text><text fill="#000000" font-family="sans-serif" font-size="11" lengthAdjust="spacingAndGlyphs" textLength="178" x="788" y="87.9683">event with a beginning and end</text><text fill="#000000" font-family="sans-serif" font-size="11" lengthAdjust="spacingAndGlyphs" textLength="189" x="788" y="100.7729">time. It serves as a container for</text><text fill="#000000" font-family="sans-serif" font-size="11" lengthAdjust="spacingAndGlyphs" textLength="149" x="788" y="113.5776">data generated during the</text><text fill="#000000" font-family="sans-serif" font-size="11" lengthAdjust="spacingAndGlyphs" textLength="196" x="788" y="126.3823">response, e.g. photos, maps, and</text><text fill="#000000" font-family="sans-serif" font-size="11" lengthAdjust="spacingAndGlyphs" textLength="105" x="788" y="139.187">headset locations.</text><line style="stroke: #A80036; stroke-width: 1.5;" x1="783" x2="993" y1="145.7813" y2="145.7813"/><text fill="#000000" font-family="sans-serif" font-size="11" lengthAdjust="spacingAndGlyphs" textLength="110" x="788" y="159.9917">Location locations[]</text><text fill="#000000" font-family="sans-serif" font-size="11" lengthAdjust="spacingAndGlyphs" textLength="170" x="788" y="172.7964">Headset assigned_headsets[]</text><text fill="#000000" font-family="sans-serif" font-size="11" lengthAdjust="spacingAndGlyphs" textLength="81" x="788" y="185.6011">datetime start</text><text fill="#000000" font-family="sans-serif" font-size="11" lengthAdjust="spacingAndGlyphs" textLength="75" x="788" y="198.4058">datetime end</text><!--class Location--><rect fill="#FEFECE" filter="url(#fhfvz9y73ic30)" height="150.4375" id="Location" style="stroke: #A80036; stroke-width: 1.5;" width="206" x="507" y="281.9531"/><ellipse cx="579.25" cy="297.9531" fill="#ADD1B2" rx="11" ry="11" style="stroke: #A80036; stroke-width: 1.0;"/><path d="M582.2188,303.5938 Q581.6406,303.8906 581,304.0391 Q580.3594,304.1875 579.6563,304.1875 Q577.1563,304.1875 575.8359,302.5391 Q574.5156,300.8906 574.5156,297.7656 Q574.5156,294.6406 575.8359,292.9844 Q577.1563,291.3281 579.6563,291.3281 Q580.3594,291.3281 581.0078,291.4844 Q581.6563,291.6406 582.2188,291.9375 L582.2188,294.6563 Q581.5938,294.0781 581,293.8047 Q580.4063,293.5313 579.7813,293.5313 Q578.4375,293.5313 577.75,294.6016 Q577.0625,295.6719 577.0625,297.7656 Q577.0625,299.8594 577.75,300.9297 Q578.4375,302 579.7813,302 Q580.4063,302 581,301.7266 Q581.5938,301.4531 582.2188,300.875 L582.2188,303.5938 Z "/><text fill="#000000" font-family="sans-serif" font-size="12" lengthAdjust="spacingAndGlyphs" textLength="53" x="599.75" y="302.1074">Location</text><line style="stroke: #A80036; stroke-width: 1.5;" x1="508" x2="712" y1="313.9531" y2="313.9531"/><text fill="#000000" font-family="sans-serif" font-size="11" lengthAdjust="spacingAndGlyphs" textLength="178" x="513" y="328.1636">A location represents a distinct</text><text fill="#000000" font-family="sans-serif" font-size="11" lengthAdjust="spacingAndGlyphs" textLength="190" x="513" y="340.9683">geographical boundary such as a</text><text fill="#000000" font-family="sans-serif" font-size="11" lengthAdjust="spacingAndGlyphs" textLength="48" x="513" y="353.7729">building.</text><line style="stroke: #A80036; stroke-width: 1.5;" x1="508" x2="712" y1="360.3672" y2="360.3672"/><text fill="#000000" font-family="sans-serif" font-size="11" lengthAdjust="spacingAndGlyphs" textLength="78" x="513" y="374.5776">Layer layers[]</text><text fill="#000000" font-family="sans-serif" font-size="11" lengthAdjust="spacingAndGlyphs" textLength="106" x="513" y="387.3823">Surface surfaces[]</text><text fill="#000000" font-family="sans-serif" font-size="11" lengthAdjust="spacingAndGlyphs" textLength="83" x="513" y="400.187">Photo photos[]</text><text fill="#000000" font-family="sans-serif" font-size="11" lengthAdjust="spacingAndGlyphs" textLength="103" x="513" y="412.9917">Feature features[]</text><text fill="#000000" font-family="sans-serif" font-size="11" lengthAdjust="spacingAndGlyphs" textLength="162" x="513" y="425.7964">Headset present_headsets[]</text><!--class Layer--><rect fill="#FEFECE" filter="url(#fhfvz9y73ic30)" height="124.8281" id="Layer" style="stroke: #A80036; stroke-width: 1.5;" width="206" x="588" y="521.4531"/><ellipse cx="670.25" cy="537.4531" fill="#ADD1B2" rx="11" ry="11" style="stroke: #A80036; stroke-width: 1.0;"/><path d="M673.2188,543.0938 Q672.6406,543.3906 672,543.5391 Q671.3594,543.6875 670.6563,543.6875 Q668.1563,543.6875 666.8359,542.0391 Q665.5156,540.3906 665.5156,537.2656 Q665.5156,534.1406 666.8359,532.4844 Q668.1563,530.8281 670.6563,530.8281 Q671.3594,530.8281 672.0078,530.9844 Q672.6563,531.1406 673.2188,531.4375 L673.2188,534.1563 Q672.5938,533.5781 672,533.3047 Q671.4063,533.0313 670.7813,533.0313 Q669.4375,533.0313 668.75,534.1016 Q668.0625,535.1719 668.0625,537.2656 Q668.0625,539.3594 668.75,540.4297 Q669.4375,541.5 670.7813,541.5 Q671.4063,541.5 672,541.2266 Q672.5938,540.9531 673.2188,540.375 L673.2188,543.0938 Z "/><text fill="#000000" font-family="sans-serif" font-size="12" lengthAdjust="spacingAndGlyphs" textLength="33" x="690.75" y="541.6074">Layer</text><line style="stroke: #A80036; stroke-width: 1.5;" x1="589" x2="793" y1="553.4531" y2="553.4531"/><text fill="#000000" font-family="sans-serif" font-size="11" lengthAdjust="spacingAndGlyphs" textLength="190" x="594" y="567.6636">A layer is any visual presentation</text><text fill="#000000" font-family="sans-serif" font-size="11" lengthAdjust="spacingAndGlyphs" textLength="187" x="594" y="580.4683">such as a 2D layout of one floor.</text><text fill="#000000" font-family="sans-serif" font-size="11" lengthAdjust="spacingAndGlyphs" textLength="186" x="594" y="593.2729">The image could be an uploaded</text><text fill="#000000" font-family="sans-serif" font-size="11" lengthAdjust="spacingAndGlyphs" textLength="150" x="594" y="606.0776">map image or dynamically</text><text fill="#000000" font-family="sans-serif" font-size="11" lengthAdjust="spacingAndGlyphs" textLength="62" x="594" y="618.8823">generated.</text><line style="stroke: #A80036; stroke-width: 1.5;" x1="589" x2="793" y1="625.4766" y2="625.4766"/><text fill="#000000" font-family="sans-serif" font-size="11" lengthAdjust="spacingAndGlyphs" textLength="75" x="594" y="639.687">string file_url</text><!--class Surface--><rect fill="#FEFECE" filter="url(#fhfvz9y73ic30)" height="150.4375" id="Surface" style="stroke: #A80036; stroke-width: 1.5;" width="202" x="829" y="508.9531"/><ellipse cx="901.75" cy="524.9531" fill="#ADD1B2" rx="11" ry="11" style="stroke: #A80036; stroke-width: 1.0;"/><path d="M904.7188,530.5938 Q904.1406,530.8906 903.5,531.0391 Q902.8594,531.1875 902.1563,531.1875 Q899.6563,531.1875 898.3359,529.5391 Q897.0156,527.8906 897.0156,524.7656 Q897.0156,521.6406 898.3359,519.9844 Q899.6563,518.3281 902.1563,518.3281 Q902.8594,518.3281 903.5078,518.4844 Q904.1563,518.6406 904.7188,518.9375 L904.7188,521.6563 Q904.0938,521.0781 903.5,520.8047 Q902.9063,520.5313 902.2813,520.5313 Q900.9375,520.5313 900.25,521.6016 Q899.5625,522.6719 899.5625,524.7656 Q899.5625,526.8594 900.25,527.9297 Q900.9375,529 902.2813,529 Q902.9063,529 903.5,528.7266 Q904.0938,528.4531 904.7188,527.875 L904.7188,530.5938 Z "/><text fill="#000000" font-family="sans-serif" font-size="12" lengthAdjust="spacingAndGlyphs" textLength="48" x="922.25" y="529.1074">Surface</text><line style="stroke: #A80036; stroke-width: 1.5;" x1="830" x2="1030" y1="540.9531" y2="540.9531"/><text fill="#000000" font-family="sans-serif" font-size="11" lengthAdjust="spacingAndGlyphs" textLength="178" x="835" y="555.1636">A surface is a geometric object</text><text fill="#000000" font-family="sans-serif" font-size="11" lengthAdjust="spacingAndGlyphs" textLength="174" x="835" y="567.9683">obtained through scanning the</text><text fill="#000000" font-family="sans-serif" font-size="11" lengthAdjust="spacingAndGlyphs" textLength="175" x="835" y="580.7729">environment. It will typically be</text><text fill="#000000" font-family="sans-serif" font-size="11" lengthAdjust="spacingAndGlyphs" textLength="186" x="835" y="593.5776">represented as a triangle mesh,</text><text fill="#000000" font-family="sans-serif" font-size="11" lengthAdjust="spacingAndGlyphs" textLength="185" x="835" y="606.3823">and can be retained and tracked</text><text fill="#000000" font-family="sans-serif" font-size="11" lengthAdjust="spacingAndGlyphs" textLength="117" x="835" y="619.187">over time by a UUID.</text><line style="stroke: #A80036; stroke-width: 1.5;" x1="830" x2="1030" y1="625.7813" y2="625.7813"/><text fill="#000000" font-family="sans-serif" font-size="11" lengthAdjust="spacingAndGlyphs" textLength="113" x="835" y="639.9917">Headset created_by</text><text fill="#000000" font-family="sans-serif" font-size="11" lengthAdjust="spacingAndGlyphs" textLength="75" x="835" y="652.7964">string file_url</text><!--class Photo--><rect fill="#FEFECE" filter="url(#fhfvz9y73ic30)" height="137.6328" id="Photo" style="stroke: #A80036; stroke-width: 1.5;" width="207" x="6.5" y="514.9531"/><ellipse cx="87.25" cy="530.9531" fill="#ADD1B2" rx="11" ry="11" style="stroke: #A80036; stroke-width: 1.0;"/><path d="M90.2188,536.5938 Q89.6406,536.8906 89,537.0391 Q88.3594,537.1875 87.6563,537.1875 Q85.1563,537.1875 83.8359,535.5391 Q82.5156,533.8906 82.5156,530.7656 Q82.5156,527.6406 83.8359,525.9844 Q85.1563,524.3281 87.6563,524.3281 Q88.3594,524.3281 89.0078,524.4844 Q89.6563,524.6406 90.2188,524.9375 L90.2188,527.6563 Q89.5938,527.0781 89,526.8047 Q88.4063,526.5313 87.7813,526.5313 Q86.4375,526.5313 85.75,527.6016 Q85.0625,528.6719 85.0625,530.7656 Q85.0625,532.8594 85.75,533.9297 Q86.4375,535 87.7813,535 Q88.4063,535 89,534.7266 Q89.5938,534.4531 90.2188,533.875 L90.2188,536.5938 Z "/><text fill="#000000" font-family="sans-serif" font-size="12" lengthAdjust="spacingAndGlyphs" textLength="37" x="107.75" y="535.1074">Photo</text><line style="stroke: #A80036; stroke-width: 1.5;" x1="7.5" x2="212.5" y1="546.9531" y2="546.9531"/><text fill="#000000" font-family="sans-serif" font-size="11" lengthAdjust="spacingAndGlyphs" textLength="191" x="12.5" y="561.1636">A photo is any image captured by</text><text fill="#000000" font-family="sans-serif" font-size="11" lengthAdjust="spacingAndGlyphs" textLength="166" x="12.5" y="573.9683">a camera at the scene of the</text><text fill="#000000" font-family="sans-serif" font-size="11" lengthAdjust="spacingAndGlyphs" textLength="170" x="12.5" y="586.7729">incident. Photos may undergo</text><text fill="#000000" font-family="sans-serif" font-size="11" lengthAdjust="spacingAndGlyphs" textLength="176" x="12.5" y="599.5776">additional processing to detect</text><text fill="#000000" font-family="sans-serif" font-size="11" lengthAdjust="spacingAndGlyphs" textLength="112" x="12.5" y="612.3823">people and objects.</text><line style="stroke: #A80036; stroke-width: 1.5;" x1="7.5" x2="212.5" y1="618.9766" y2="618.9766"/><text fill="#000000" font-family="sans-serif" font-size="11" lengthAdjust="spacingAndGlyphs" textLength="113" x="12.5" y="633.187">Headset created_by</text><text fill="#000000" font-family="sans-serif" font-size="11" lengthAdjust="spacingAndGlyphs" textLength="75" x="12.5" y="645.9917">string file_url</text><!--class Annotation--><rect fill="#FEFECE" filter="url(#fhfvz9y73ic30)" height="124.8281" id="Annotation" style="stroke: #A80036; stroke-width: 1.5;" width="208" x="6" y="754.9531"/><ellipse cx="71.25" cy="770.9531" fill="#ADD1B2" rx="11" ry="11" style="stroke: #A80036; stroke-width: 1.0;"/><path d="M74.2188,776.5938 Q73.6406,776.8906 73,777.0391 Q72.3594,777.1875 71.6563,777.1875 Q69.1563,777.1875 67.8359,775.5391 Q66.5156,773.8906 66.5156,770.7656 Q66.5156,767.6406 67.8359,765.9844 Q69.1563,764.3281 71.6563,764.3281 Q72.3594,764.3281 73.0078,764.4844 Q73.6563,764.6406 74.2188,764.9375 L74.2188,767.6563 Q73.5938,767.0781 73,766.8047 Q72.4063,766.5313 71.7813,766.5313 Q70.4375,766.5313 69.75,767.6016 Q69.0625,768.6719 69.0625,770.7656 Q69.0625,772.8594 69.75,773.9297 Q70.4375,775 71.7813,775 Q72.4063,775 73,774.7266 Q73.5938,774.4531 74.2188,773.875 L74.2188,776.5938 Z "/><text fill="#000000" font-family="sans-serif" font-size="12" lengthAdjust="spacingAndGlyphs" textLength="69" x="91.75" y="775.1074">Annotation</text><line style="stroke: #A80036; stroke-width: 1.5;" x1="7" x2="213" y1="786.9531" y2="786.9531"/><text fill="#000000" font-family="sans-serif" font-size="11" lengthAdjust="spacingAndGlyphs" textLength="177" x="12" y="801.1636">A photo may have one or more</text><text fill="#000000" font-family="sans-serif" font-size="11" lengthAdjust="spacingAndGlyphs" textLength="192" x="12" y="813.9683">annotations added through object</text><text fill="#000000" font-family="sans-serif" font-size="11" lengthAdjust="spacingAndGlyphs" textLength="141" x="12" y="826.7729">detection or other image</text><text fill="#000000" font-family="sans-serif" font-size="11" lengthAdjust="spacingAndGlyphs" textLength="67" x="12" y="839.5776">processing.</text><line style="stroke: #A80036; stroke-width: 1.5;" x1="7" x2="213" y1="846.1719" y2="846.1719"/><text fill="#000000" font-family="sans-serif" font-size="11" lengthAdjust="spacingAndGlyphs" textLength="64" x="12" y="860.3823">string label</text><text fill="#000000" font-family="sans-serif" font-size="11" lengthAdjust="spacingAndGlyphs" textLength="130" x="12" y="873.187">float x, y, width, height</text><!--class Feature--><rect fill="#FEFECE" filter="url(#fhfvz9y73ic30)" height="137.6328" id="Feature" style="stroke: #A80036; stroke-width: 1.5;" width="209" x="248.5" y="514.9531"/><ellipse cx="324.25" cy="530.9531" fill="#ADD1B2" rx="11" ry="11" style="stroke: #A80036; stroke-width: 1.0;"/><path d="M327.2188,536.5938 Q326.6406,536.8906 326,537.0391 Q325.3594,537.1875 324.6563,537.1875 Q322.1563,537.1875 320.8359,535.5391 Q319.5156,533.8906 319.5156,530.7656 Q319.5156,527.6406 320.8359,525.9844 Q322.1563,524.3281 324.6563,524.3281 Q325.3594,524.3281 326.0078,524.4844 Q326.6563,524.6406 327.2188,524.9375 L327.2188,527.6563 Q326.5938,527.0781 326,526.8047 Q325.4063,526.5313 324.7813,526.5313 Q323.4375,526.5313 322.75,527.6016 Q322.0625,528.6719 322.0625,530.7656 Q322.0625,532.8594 322.75,533.9297 Q323.4375,535 324.7813,535 Q325.4063,535 326,534.7266 Q326.5938,534.4531 327.2188,533.875 L327.2188,536.5938 Z "/><text fill="#000000" font-family="sans-serif" font-size="12" lengthAdjust="spacingAndGlyphs" textLength="49" x="344.75" y="535.1074">Feature</text><line style="stroke: #A80036; stroke-width: 1.5;" x1="249.5" x2="456.5" y1="546.9531" y2="546.9531"/><text fill="#000000" font-family="sans-serif" font-size="11" lengthAdjust="spacingAndGlyphs" textLength="197" x="254.5" y="561.1636">A feature is any digital information</text><text fill="#000000" font-family="sans-serif" font-size="11" lengthAdjust="spacingAndGlyphs" textLength="193" x="254.5" y="573.9683">that can be attached to a physical</text><text fill="#000000" font-family="sans-serif" font-size="11" lengthAdjust="spacingAndGlyphs" textLength="184" x="254.5" y="586.7729">location such as a note, point of</text><text fill="#000000" font-family="sans-serif" font-size="11" lengthAdjust="spacingAndGlyphs" textLength="160" x="254.5" y="599.5776">interest, or warning about a</text><text fill="#000000" font-family="sans-serif" font-size="11" lengthAdjust="spacingAndGlyphs" textLength="42" x="254.5" y="612.3823">hazard.</text><line style="stroke: #A80036; stroke-width: 1.5;" x1="249.5" x2="456.5" y1="618.9766" y2="618.9766"/><text fill="#000000" font-family="sans-serif" font-size="11" lengthAdjust="spacingAndGlyphs" textLength="113" x="254.5" y="633.187">Headset created_by</text><text fill="#000000" font-family="sans-serif" font-size="11" lengthAdjust="spacingAndGlyphs" textLength="84" x="254.5" y="645.9917">vector position</text><!--class Headset--><rect fill="#FEFECE" filter="url(#fhfvz9y73ic30)" height="163.2422" id="Headset" style="stroke: #A80036; stroke-width: 1.5;" width="210" x="423" y="735.9531"/><ellipse cx="497.25" cy="751.9531" fill="#ADD1B2" rx="11" ry="11" style="stroke: #A80036; stroke-width: 1.0;"/><path d="M500.2188,757.5938 Q499.6406,757.8906 499,758.0391 Q498.3594,758.1875 497.6563,758.1875 Q495.1563,758.1875 493.8359,756.5391 Q492.5156,754.8906 492.5156,751.7656 Q492.5156,748.6406 493.8359,746.9844 Q495.1563,745.3281 497.6563,745.3281 Q498.3594,745.3281 499.0078,745.4844 Q499.6563,745.6406 500.2188,745.9375 L500.2188,748.6563 Q499.5938,748.0781 499,747.8047 Q498.4063,747.5313 497.7813,747.5313 Q496.4375,747.5313 495.75,748.6016 Q495.0625,749.6719 495.0625,751.7656 Q495.0625,753.8594 495.75,754.9297 Q496.4375,756 497.7813,756 Q498.4063,756 499,755.7266 Q499.5938,755.4531 500.2188,754.875 L500.2188,757.5938 Z "/><text fill="#000000" font-family="sans-serif" font-size="12" lengthAdjust="spacingAndGlyphs" textLength="53" x="517.75" y="756.1074">Headset</text><line style="stroke: #A80036; stroke-width: 1.5;" x1="424" x2="632" y1="767.9531" y2="767.9531"/><text fill="#000000" font-family="sans-serif" font-size="11" lengthAdjust="spacingAndGlyphs" textLength="189" x="429" y="782.1636">A headset is the user device that</text><text fill="#000000" font-family="sans-serif" font-size="11" lengthAdjust="spacingAndGlyphs" textLength="188" x="429" y="794.9683">interacts with the system. It may</text><text fill="#000000" font-family="sans-serif" font-size="11" lengthAdjust="spacingAndGlyphs" textLength="183" x="429" y="807.7729">be assigned to one incident and</text><text fill="#000000" font-family="sans-serif" font-size="11" lengthAdjust="spacingAndGlyphs" textLength="191" x="429" y="820.5776">present at one location at a time,</text><text fill="#000000" font-family="sans-serif" font-size="11" lengthAdjust="spacingAndGlyphs" textLength="194" x="429" y="833.3823">and its position is defined relative</text><text fill="#000000" font-family="sans-serif" font-size="11" lengthAdjust="spacingAndGlyphs" textLength="186" x="429" y="846.187">to the location's reference point.</text><line style="stroke: #A80036; stroke-width: 1.5;" x1="424" x2="632" y1="852.7813" y2="852.7813"/><text fill="#000000" font-family="sans-serif" font-size="11" lengthAdjust="spacingAndGlyphs" textLength="69" x="429" y="866.9917">string name</text><text fill="#000000" font-family="sans-serif" font-size="11" lengthAdjust="spacingAndGlyphs" textLength="84" x="429" y="879.7964">vector position</text><text fill="#000000" font-family="sans-serif" font-size="11" lengthAdjust="spacingAndGlyphs" textLength="100" x="429" y="892.6011">vector orientation</text><!--link Incident to Location--><path d="M776.03,213.8131 C749.64,236.4031 721.91,260.1431 696.83,281.6131 " fill="none" id="Incident-Location" style="stroke: #A80036; stroke-width: 1.0;"/><polygon fill="#A80036" points="786.06,205.2231,778.9011,206.0891,776.9471,213.0304,784.106,212.1644,786.06,205.2231" style="stroke: #A80036; stroke-width: 1.0;"/><text fill="#000000" font-family="sans-serif" font-size="13" lengthAdjust="spacingAndGlyphs" textLength="23" x="750" y="248.02">1..*</text><!--link Location to Layer--><path d="M641.19,444.6031 C650.38,470.1131 660.24,497.5031 668.74,521.1331 " fill="none" id="Location-Layer" style="stroke: #A80036; stroke-width: 1.0;"/><polygon fill="#A80036" points="636.75,432.2531,635.0176,439.253,640.8128,443.5444,642.5452,436.5445,636.75,432.2531" style="stroke: #A80036; stroke-width: 1.0;"/><text fill="#000000" font-family="sans-serif" font-size="13" lengthAdjust="spacingAndGlyphs" textLength="23" x="653" y="475.02">1..*</text><!--link Location to Surface--><path d="M724,438.1131 C758.22,462.1631 795.5,488.3831 828.82,511.8131 " fill="none" id="Location-Surface" style="stroke: #A80036; stroke-width: 1.0;"/><polygon fill="#A80036" points="713.01,430.3831,715.6182,437.106,722.8271,437.2841,720.2189,430.5613,713.01,430.3831" style="stroke: #A80036; stroke-width: 1.0;"/><text fill="#000000" font-family="sans-serif" font-size="13" lengthAdjust="spacingAndGlyphs" textLength="23" x="780" y="475.02">0..*</text><!--link Location to Photo--><path d="M494.11,398.3031 C417.91,426.2431 316.8,466.0131 231,508.9531 C225.27,511.8231 219.46,514.8631 213.64,518.0231 " fill="none" id="Location-Photo" style="stroke: #A80036; stroke-width: 1.0;"/><polygon fill="#A80036" points="506.6,393.7431,499.5923,392.0423,495.3271,397.8567,502.3348,399.5576,506.6,393.7431" style="stroke: #A80036; stroke-width: 1.0;"/><text fill="#000000" font-family="sans-serif" font-size="13" lengthAdjust="spacingAndGlyphs" textLength="23" x="334" y="475.02">0..*</text><!--link Location to Feature--><path d="M502.47,440.3831 C493.76,447.5631 485.17,454.8131 477,461.9531 C458.09,478.4831 438.33,497.1031 420.27,514.6931 " fill="none" id="Location-Feature" style="stroke: #A80036; stroke-width: 1.0;"/><polygon fill="#A80036" points="512.74,432.0031,505.5628,432.7017,503.4472,439.5955,510.6244,438.8969,512.74,432.0031" style="stroke: #A80036; stroke-width: 1.0;"/><text fill="#000000" font-family="sans-serif" font-size="13" lengthAdjust="spacingAndGlyphs" textLength="23" x="478" y="475.02">0..*</text><!--link Photo to Annotation--><path d="M110,666.2531 C110,695.2931 110,727.5231 110,754.6531 " fill="none" id="Photo-Annotation" style="stroke: #A80036; stroke-width: 1.0;"/><polygon fill="#A80036" points="110,653.1631,106,659.1631,110,665.1631,114,659.1631,110,653.1631" style="stroke: #A80036; stroke-width: 1.0;"/><text fill="#000000" font-family="sans-serif" font-size="13" lengthAdjust="spacingAndGlyphs" textLength="23" x="111" y="702.02">0..*</text><!--link Incident to Headset--><path d="M964.94,216.2631 C1045.58,332.1431 1147.89,525.7531 1049,658.9531 C999.29,725.9131 770.47,775.4031 633.15,799.6931 " fill="none" id="Incident-Headset" style="stroke: #A80036; stroke-width: 1.0;"/><polygon fill="#FFFFFF" points="957.21,205.2931,957.3992,212.5017,964.1261,215.0997,963.9369,207.891,957.21,205.2931" style="stroke: #A80036; stroke-width: 1.0;"/><text fill="#000000" font-family="sans-serif" font-size="13" lengthAdjust="spacingAndGlyphs" textLength="23" x="1085" y="475.02">0..*</text><!--link Location to Headset--><path d="M567.45,444.2831 C558.92,465.0131 551.04,487.4031 546,508.9531 C528.35,584.4631 524.92,673.0831 525.26,735.7431 " fill="none" id="Location-Headset" style="stroke: #A80036; stroke-width: 1.0;"/><polygon fill="#FFFFFF" points="572.53,432.2931,566.5064,436.2576,567.8492,443.3425,573.8727,439.3781,572.53,432.2931" style="stroke: #A80036; stroke-width: 1.0;"/><text fill="#000000" font-family="sans-serif" font-size="13" lengthAdjust="spacingAndGlyphs" textLength="23" x="547" y="588.52">0..*</text><!--link Surface to Headset--><path d="M828.84,648.8831 C823.16,652.3231 817.52,655.6931 812,658.9531 C753.49,693.4831 687.14,730.4031 633.29,759.8131 " fill="none" id="Surface-Headset" style="stroke: #A80036; stroke-width: 1.0;"/><!--link Photo to Headset--><path d="M213.71,648.9431 C219.54,652.3631 225.33,655.7231 231,658.9531 C293.87,694.8031 365.52,732.8731 422.69,762.6031 " fill="none" id="Photo-Headset" style="stroke: #A80036; stroke-width: 1.0;"/><!--link Feature to Headset--><path d="M404.56,653.1631 C424.12,679.0331 446.58,708.7431 466.93,735.6731 " fill="none" id="Feature-Headset" style="stroke: #A80036; stroke-width: 1.0;"/><text fill="#000000" font-family="sans-serif" font-size="14" lengthAdjust="spacingAndGlyphs" textLength="563" x="282" y="921.9482">Note: this is a conceptual diagram and may not exactly reflect the implementation.</text><!--
@startuml

skinparam wrapWidth 200

title Important Data Classes and Their Relationships
caption Note: this is a conceptual diagram and may not exactly reflect the implementation.

class Incident {
    An incident represents a distinct event with a beginning and end time. It serves as a container for data generated during the response, e.g. photos, maps, and headset locations.
    __
    Location locations[]
    Headset assigned_headsets[]
    datetime start
    datetime end
}

class Location {
    A location represents a distinct geographical boundary such as a building.
    __
    Layer layers[]
    Surface surfaces[]
    Photo photos[]
    Feature features[]
    Headset present_headsets[]
}

class Layer {
    A layer is any visual presentation such as a 2D layout of one floor. The image could be an uploaded map image or dynamically generated.
    __
    string file_url
}

class Surface {
    A surface is a geometric object obtained through scanning the environment. It will typically be represented as a triangle mesh, and can be retained and tracked over time by a UUID.
    __
    Headset created_by
    string file_url
}

class Photo {
    A photo is any image captured by a camera at the scene of the incident. Photos may undergo additional processing to detect people and objects.
    __
    Headset created_by
    string file_url
}

class Annotation {
    A photo may have one or more annotations added through object detection or other image processing.
    __
    string label
    float x, y, width, height
}

class Feature {
    A feature is any digital information that can be attached to a physical location such as a note, point of interest, or warning about a hazard.
    __
    Headset created_by
    vector position
}

class Headset {
    A headset is the user device that interacts with the system. It may be assigned to one incident and present at one location at a time, and its position is defined relative to the location's reference point.
    __
    string name
    vector position
    vector orientation
}

Incident *- - Location : 1..*
Location *- - Layer : 1..*
Location *- - Surface : 0..*
Location *- - Photo : 0..*
Location *- - Feature : 0..*
Photo *- - Annotation : 0..*

Incident o- - Headset : 0..*
Location o- - Headset : 0..*

Surface - - Headset
Photo - - Headset
Feature - - Headset

@enduml

PlantUML version 1.2018.13(Mon Nov 26 11:11:51 CST 2018)
(GPL source distribution)
Java Runtime: Java(TM) SE Runtime Environment
JVM: Java HotSpot(TM) 64-Bit Server VM
Java Version: 1.8.0_201-b09
Operating System: Linux
OS Version: 5.4.0-96-generic
Default Encoding: UTF-8
Language: en
Country: US
--></g></svg>